<svg xmlns="http://www.w3.org/2000/svg" width="48" height="45" viewBox="0 0 48 45">
  <path id="phoneold" d="M42,42v1.5A1.52,1.52,0,0,1,40.5,45h-3A1.52,1.52,0,0,1,36,43.5V42H12v1.5A1.52,1.52,0,0,1,10.5,45h-3A1.52,1.52,0,0,1,6,43.5V42a5.781,5.781,0,0,1-4.242-1.758A5.781,5.781,0,0,1,0,36V33a15.353,15.353,0,0,1,1.711-6.773,17.617,17.617,0,0,1,4.547-5.859A8.952,8.952,0,0,1,12,18a2.92,2.92,0,0,0,2.109-.867A2.865,2.865,0,0,0,15,15V12a2.92,2.92,0,0,1,.867-2.109,3,3,0,0,1,4.266,0A2.925,2.925,0,0,1,21,12h6a2.92,2.92,0,0,1,.867-2.109,3,3,0,0,1,4.266,0A2.925,2.925,0,0,1,33,12v3a2.961,2.961,0,0,0,3,3,8.947,8.947,0,0,1,5.742,2.367,17.617,17.617,0,0,1,4.547,5.859A15.355,15.355,0,0,1,48,33v3a6,6,0,0,1-6,6ZM24,21a8.641,8.641,0,0,0-6.375,2.648,9.026,9.026,0,0,0,0,12.727A8.679,8.679,0,0,0,24,39a8.963,8.963,0,0,0,9-9,8.963,8.963,0,0,0-9-9Zm0,15a6,6,0,0,1-6-6,6,6,0,0,1,6-6,6,6,0,0,1,6,6,6,6,0,0,1-6,6ZM42,15H40.477l-1.336-.047-1.289-.141-.938-.258-.7-.422L36,13.5V8.672A11.645,11.645,0,0,0,31.312,6.82a33.015,33.015,0,0,0-14.625,0A11.586,11.586,0,0,0,12,8.672V13.5a.967.967,0,0,1-.211.633,1.5,1.5,0,0,1-.7.422,8.556,8.556,0,0,1-.938.258,9.153,9.153,0,0,1-1.289.141Q8.016,15,7.523,15H4.359L3,14.954l-1.266-.141-.891-.258-.656-.422L0,13.5V9.422Q0,6.516,3.258,4.336a24,24,0,0,1,8.648-3.258A61.918,61.918,0,0,1,24,0,61.918,61.918,0,0,1,36.094,1.078a24,24,0,0,1,8.648,3.258Q48,6.516,48,9.422V13.5a1.046,1.046,0,0,1-.188.633,1.331,1.331,0,0,1-.656.422,7.86,7.86,0,0,1-.891.258A8.489,8.489,0,0,1,45,14.954Q44.156,15,43.64,15H42Z"/>
</svg>
